<svg xmlns="http://www.w3.org/2000/svg" viewBox="0 0 229.02 51.5"><defs><style>.cls-1{fill:#fff;}</style></defs><g id="Layer_2" data-name="Layer 2"><g id="Layer_1-2" data-name="Layer 1"><path class="cls-1" d="M.73.1h6q3.67,0,5.35,1.42a5.65,5.65,0,0,1,1.68,4.54,6.22,6.22,0,0,1-.89,3.43,3.59,3.59,0,0,1-2.42,1.66v.17a4.55,4.55,0,0,1,2.89,1.87,6.6,6.6,0,0,1,.88,3.64,7,7,0,0,1-1.71,5,6.16,6.16,0,0,1-4.7,1.81H.73ZM4.85,9.57h2a2.3,2.3,0,0,0,2-.74,3.65,3.65,0,0,0,.56-2.21,2.88,2.88,0,0,0-.64-2.1,2.82,2.82,0,0,0-2-.64H4.85Zm0,3.66v6.6H7.06a2.46,2.46,0,0,0,2-.84,4.13,4.13,0,0,0,.67-2.6c0-2.1-.93-3.16-2.77-3.16Z"/><path class="cls-1" d="M28.61,23.66l-1.35-5.95H21.12l-1.36,5.95H15.38L21.21,0h5.95L33,23.66Zm-2.17-9.83L25.18,8.35c-.08-.33-.25-1.17-.51-2.51s-.42-2.23-.47-2.68c-.14.92-.32,1.94-.54,3.05S22.89,9.86,22,13.83Z"/><path class="cls-1" d="M41.2,23.66H36.83V4H32.32V.1H45.71V4H41.2Z"/><path class="cls-1" d="M55.47,23.66H51.1V4H46.58V.1H60V4H55.47Z"/><path class="cls-1" d="M62.5,23.66V.1h4.38V19.83H73v3.83Z"/><path class="cls-1" d="M86.38,23.66H75.76V.1H86.38V3.88H80.15V9.49h5.78V13.3H80.15v6.53h6.23Z"/><path class="cls-1" d="M102.36,14.49v9.17H98V.1h5.74q3.65,0,5.38,1.72t1.73,5.27q0,4.47-3,6.24l4.53,10.33h-4.69l-3.73-9.17Zm0-3.77h1.13a2.61,2.61,0,0,0,2.22-.88,4.27,4.27,0,0,0,.68-2.62,3.71,3.71,0,0,0-.72-2.57,2.92,2.92,0,0,0-2.22-.77h-1.09Z"/><path class="cls-1" d="M115.27,23.66V.1h4.13V23.66Z"/><path class="cls-1" d="M134.52.1h4.41l-5.54,23.56h-5.58L122.3.1h4.41l3.08,14.39a53.14,53.14,0,0,1,.83,5.27c.22-1.94.51-3.7.85-5.27Z"/><path class="cls-1" d="M151.64,23.66H141V.1h10.63V3.88H145.4V9.49h5.78V13.3H145.4v6.53h6.24Z"/><path class="cls-1" d="M159.45,14.49v9.17h-4.38V.1h5.74q3.65,0,5.37,1.72t1.74,5.27q0,4.47-3,6.24l4.53,10.33h-4.69L161,14.49Zm0-3.77h1.13a2.65,2.65,0,0,0,2.23-.88,4.27,4.27,0,0,0,.67-2.62,3.76,3.76,0,0,0-.71-2.57,2.92,2.92,0,0,0-2.22-.77h-1.1Z"/><path class="cls-1" d="M16.94,39.36q0,5.85-2.19,9A7.18,7.18,0,0,1,8.48,51.5a7.21,7.21,0,0,1-6.29-3.14Q0,45.23,0,39.33t2.19-9a7.25,7.25,0,0,1,6.32-3.12,7.17,7.17,0,0,1,6.26,3.13Q16.95,33.51,16.94,39.36Zm-12.46,0a14.59,14.59,0,0,0,1,6.14,3.2,3.2,0,0,0,3,2.11q4,0,4-8.25T8.51,31.11a3.22,3.22,0,0,0-3,2.1A14.54,14.54,0,0,0,4.48,39.36Z"/><path class="cls-1" d="M30,27.61h4.42L28.89,51.17H23.31L17.8,27.61h4.41L25.29,42c.28,1.23.55,3,.82,5.27A53.29,53.29,0,0,1,27,42Z"/><path class="cls-1" d="M47.13,51.17H36.51V27.61H47.13V31.4H40.9V37h5.78v3.81H40.9v6.53h6.23Z"/><path class="cls-1" d="M55,42v9.17H50.57V27.61h5.74c2.42,0,4.22.57,5.37,1.72s1.73,2.91,1.73,5.27q0,4.47-3,6.24l4.53,10.33H60.24L56.51,42Zm0-3.77h1.13a2.61,2.61,0,0,0,2.22-.88A4.18,4.18,0,0,0,59,34.73a3.71,3.71,0,0,0-.72-2.57,2.87,2.87,0,0,0-2.21-.76H55Z"/><path class="cls-1" d="M81.63,51.17H77.24V40.84H71.46V51.17H67.07V27.61h4.39V37h5.78V27.61h4.39Z"/><path class="cls-1" d="M96.41,51.17H85.79V27.61H96.41V31.4H90.17V37H96v3.81H90.17v6.53h6.24Z"/><path class="cls-1" d="M111,51.17l-1.36-5.94H103.5l-1.35,5.94H97.76l5.84-23.66h6l5.85,23.66Zm-2.18-9.83-1.26-5.48c-.07-.33-.24-1.17-.5-2.51s-.42-2.23-.48-2.68c-.14.92-.32,1.94-.53,3s-.77,3.66-1.68,7.62Z"/><path class="cls-1" d="M132.47,39.17q0,5.84-2.38,8.92a8.12,8.12,0,0,1-6.84,3.08h-5.77V27.61h6.3a7.55,7.55,0,0,1,6.4,3Q132.48,33.68,132.47,39.17Zm-4.5.12q0-7.89-4.35-7.89h-1.76V47.34h1.42a3.82,3.82,0,0,0,3.55-2A12.56,12.56,0,0,0,128,39.29Z"/><path class="cls-1" d="M159.05,39.17q0,5.84-2.38,8.92a8.12,8.12,0,0,1-6.84,3.08h-5.77V27.61h6.3a7.54,7.54,0,0,1,6.4,3Q159.06,33.68,159.05,39.17Zm-4.5.12q0-7.89-4.35-7.89h-1.76V47.34h1.42a3.82,3.82,0,0,0,3.55-2A12.56,12.56,0,0,0,154.55,39.29Z"/><path class="cls-1" d="M178.7,39.36q0,5.85-2.19,9a7.84,7.84,0,0,1-12.56,0q-2.19-3.13-2.19-9t2.19-9a7.25,7.25,0,0,1,6.32-3.12,7.14,7.14,0,0,1,6.25,3.13Q178.7,33.51,178.7,39.36Zm-12.46,0a14.77,14.77,0,0,0,1,6.14,3.22,3.22,0,0,0,3,2.11q4,0,4-8.25t-3.93-8.25a3.24,3.24,0,0,0-3,2.1A14.72,14.72,0,0,0,166.24,39.36Z"/><path class="cls-1" d="M198.35,39.36q0,5.85-2.19,9a7.84,7.84,0,0,1-12.56,0q-2.19-3.13-2.19-9t2.19-9a7.25,7.25,0,0,1,6.32-3.12,7.14,7.14,0,0,1,6.25,3.13Q198.35,33.51,198.35,39.36Zm-12.46,0a14.77,14.77,0,0,0,1,6.14,3.22,3.22,0,0,0,3,2.11q4,0,4-8.25t-3.93-8.25a3.24,3.24,0,0,0-3,2.1A14.72,14.72,0,0,0,185.89,39.36Z"/><path class="cls-1" d="M206.17,42v9.17h-4.39V27.61h5.74q3.64,0,5.38,1.72t1.73,5.27c0,3-1,5.06-3,6.24l4.52,10.33h-4.69L207.73,42Zm0-3.77h1.12a2.62,2.62,0,0,0,2.23-.88,4.25,4.25,0,0,0,.68-2.62,3.71,3.71,0,0,0-.72-2.57,2.91,2.91,0,0,0-2.22-.76h-1.09Z"/><path class="cls-1" d="M229,44.68a7.08,7.08,0,0,1-1.66,5.06,6.35,6.35,0,0,1-4.82,1.76,10.61,10.61,0,0,1-5.23-1.21V46a9.07,9.07,0,0,0,4.85,1.73,2.4,2.4,0,0,0,1.89-.7,2.65,2.65,0,0,0,.64-1.88,3.36,3.36,0,0,0-.76-2.15,10.8,10.8,0,0,0-2.5-2.17,11.07,11.07,0,0,1-2.29-2,7,7,0,0,1-1.21-2.15,8.1,8.1,0,0,1-.43-2.77A6.71,6.71,0,0,1,219.18,29a6,6,0,0,1,4.53-1.77,9.87,9.87,0,0,1,5.2,1.51l-1.45,3.52a13.6,13.6,0,0,0-1.62-.81,4.74,4.74,0,0,0-1.81-.35,2,2,0,0,0-1.64.7,2.94,2.94,0,0,0-.57,1.91,3.35,3.35,0,0,0,.68,2.08,10.23,10.23,0,0,0,2.4,2A10.05,10.05,0,0,1,228.11,41,7.33,7.33,0,0,1,229,44.68Z"/></g></g></svg>